<svg width="36" height="36" viewBox="0 0 36 36" fill="none">
  <circle cx="18" cy="18" r="18" fill="white" fill-opacity="0.05"/>
  <path d="M25 21.5c-.8.7-1.7 1.2-2.8 1.5-2.5.8-5.3-.1-7.1-2.1-1.9-2-2.4-4.9-1.6-7.5.7-2.1 2.5-3.7 4.7-4.1 3.2-.6 6.3 1.7 7 4.8.3 1.3.1 2.7-.4 3.9z" fill="#fff"/>
  <path d="M13.7 26.7l.5-3.1c0-.1.1-.3.2-.3.3-.1.6-.1.9 0 2.1.7 4.4.2 6.2-1.5 1.7-1.5 2.8-3.7 2.8-6.1 0-4.8-3.9-8.7-8.7-8.7-4.8 0-8.7 3.9-8.7 8.7 0 1.4.3 2.7.9 4l.4.9-.8 3.4c-.1.3.2.7.5.7h.1l3.5-.7.9.4c1.1.5 2.3.8 3.6.8.6.1 1.1.1 1.7 0z" stroke="#fff" stroke-width="2" fill="none"/>
</svg>